<?xml version="1.0" encoding="utf-8"?>
<!-- Generator: Adobe Illustrator 26.5.0, SVG Export Plug-In . SVG Version: 6.00 Build 0)  -->
<svg version="1.1" id="Layer_1" xmlns="http://www.w3.org/2000/svg" xmlns:xlink="http://www.w3.org/1999/xlink" x="0px" y="0px"
	 viewBox="0 0 841.9 595.3" style="enable-background:new 0 0 841.9 595.3;" xml:space="preserve">
<style type="text/css">
	.st0{fill:#FFFFFF;}
	.st1{fill:#E10D23;}
	.st2{fill:#9B9A9A;}
</style>
<g>
	<path class="st0" d="M194.9,273.9h34.4c8.5,0,15.1,2.3,19.4,6.5c3.4,3.4,5.1,7.5,5.1,12.6v0.2c0,8.4-4.5,13.1-9.8,16
		c8.6,3.3,13.9,8.3,13.9,18.2v0.2c0,13.6-11,20.4-27.8,20.4h-35.3L194.9,273.9L194.9,273.9L194.9,273.9z M237.6,295.9
		c0-4.9-3.8-7.6-10.7-7.6h-16.1v15.6h15c7.2,0,11.8-2.3,11.8-7.8V295.9z M229.6,317.6h-18.9v16.3h19.4c7.2,0,11.5-2.5,11.5-8.1v-0.2
		C241.7,320.6,238,317.6,229.6,317.6z"/>
	<rect x="272.1" y="273.9" class="st0" width="16.3" height="74.3"/>
	<polygon class="st0" points="309.2,273.9 326.7,273.9 346.2,305.4 365.8,273.9 383.3,273.9 383.3,348.2 367.1,348.2 367.1,299.7 
		346.2,331.4 345.9,331.4 325.2,300 325.2,348.2 309.2,348.2 	"/>
	<path class="st0" d="M482.7,273.9h29c23.3,0,39.4,16,39.4,36.9v0.2c0,20.9-16.1,37.1-39.4,37.1h-29V273.9z M499,288.7v44.8h12.6
		c13.4,0,22.3-9,22.3-22.1v-0.2c0-13.2-9-22.3-22.3-22.3L499,288.7L499,288.7z"/>
	<polygon class="st0" points="155.3,273.4 140.3,273.4 108.4,348.2 125.1,348.2 147.6,293 170.1,348.2 187.2,348.2 	"/>
	<polygon class="st0" points="441.3,273.4 426.3,273.4 394.4,348.2 411,348.2 433.6,293 456,348.2 473.1,348.2 	"/>
	<path class="st0" d="M194.9,273.9h34.4c8.5,0,15.1,2.3,19.4,6.5c3.4,3.4,5.1,7.5,5.1,12.6v0.2c0,8.4-4.5,13.1-9.8,16
		c8.6,3.3,13.9,8.3,13.9,18.2v0.2c0,13.6-11,20.4-27.8,20.4h-35.3L194.9,273.9L194.9,273.9L194.9,273.9z M237.6,295.9
		c0-4.9-3.8-7.6-10.7-7.6h-16.1v15.6h15c7.2,0,11.8-2.3,11.8-7.8V295.9z M229.6,317.6h-18.9v16.3h19.4c7.2,0,11.5-2.5,11.5-8.1v-0.2
		C241.7,320.6,238,317.6,229.6,317.6z"/>
	<rect x="272.1" y="273.9" class="st0" width="16.3" height="74.3"/>
	<polygon class="st0" points="309.2,273.9 326.7,273.9 346.2,305.4 365.8,273.9 383.3,273.9 383.3,348.2 367.1,348.2 367.1,299.7 
		346.2,331.4 345.9,331.4 325.2,300 325.2,348.2 309.2,348.2 	"/>
	<path class="st0" d="M482.7,273.9h29c23.3,0,39.4,16,39.4,36.9v0.2c0,20.9-16.1,37.1-39.4,37.1h-29V273.9z M499,288.7v44.8h12.6
		c13.4,0,22.3-9,22.3-22.1v-0.2c0-13.2-9-22.3-22.3-22.3L499,288.7L499,288.7z"/>
	<polygon class="st0" points="155.3,273.4 140.3,273.4 108.4,348.2 125.1,348.2 147.6,293 170.1,348.2 187.2,348.2 	"/>
	<polygon class="st0" points="441.3,273.4 426.3,273.4 394.4,348.2 411,348.2 433.6,293 456,348.2 473.1,348.2 	"/>
	<polygon class="st1" points="573.8,276 558.5,300.5 558.5,276 	"/>
	<g>
		<path class="st2" d="M603.7,348c-8.2,0-15.4-1.6-21.4-4.8c-6.1-3.2-11.1-7.4-15.1-12.6l8-7.1c3.8,4.7,8,8.3,12.7,10.8
			c4.6,2.5,10,3.8,16,3.8c3,0,5.8-0.4,8.4-1.3c2.6-0.9,4.9-2.2,6.8-3.9c1.9-1.7,3.4-3.7,4.5-6c1.1-2.3,1.7-5,1.7-7.9v-0.3
			c0-3.1-0.7-5.8-2-8.1c-1.4-2.3-3.2-4.3-5.7-5.9c-2.4-1.6-5.3-2.8-8.7-3.6c-3.4-0.8-7-1.3-11.1-1.3h-6.3l-2.2-6.6l30.9-34.9h-47.9
			v-9.9h62.5v8.1l-30.7,34.2c4.3,0.4,8.4,1.2,12.2,2.4c3.9,1.2,7.3,2.9,10.3,5.2s5.3,5,7.1,8.3c1.8,3.3,2.6,7.2,2.6,11.7v0.3
			c0,4.4-0.9,8.4-2.6,12c-1.7,3.6-4,6.7-6.9,9.3c-2.9,2.6-6.4,4.6-10.3,6C612.6,347.3,608.3,348,603.7,348z"/>
		<path class="st2" d="M682.6,348c-5.4,0-10.3-0.9-14.6-2.7c-4.3-1.8-8-4.2-11.1-7.3c-2-2-3.7-4.1-5.2-6.4c-1.5-2.3-2.8-5-3.9-8
			c-1-3-1.8-6.4-2.4-10.2c-0.6-3.8-0.8-8.3-0.8-13.3v-0.3c0-7.5,0.9-14.4,2.7-20.9c1.8-6.5,4.5-12.1,8-16.9
			c3.5-4.8,7.8-8.5,12.8-11.3c5-2.8,10.8-4.1,17.2-4.1c5.9,0,11.1,1,15.7,2.9c4.6,1.9,9,4.7,13.3,8.2l-6.4,8.5
			c-3.6-3.1-7.3-5.5-10.9-7.1c-3.6-1.7-7.7-2.5-12.2-2.5c-4.5,0-8.5,1.1-12,3.2c-3.5,2.2-6.6,5.2-9,9c-2.5,3.8-4.4,8.4-5.7,13.7
			c-1.3,5.3-2,11.1-2,17.5c1.3-2,2.8-3.8,4.6-5.7c1.7-1.8,3.7-3.4,6-4.8c2.3-1.4,4.9-2.5,7.7-3.3c2.8-0.8,6-1.3,9.6-1.3
			c4.6,0,8.9,0.7,13,2.1c4.1,1.4,7.7,3.4,10.8,6c3.1,2.6,5.5,5.8,7.4,9.5c1.8,3.7,2.7,7.9,2.7,12.5v0.3c0,4.8-0.9,9.1-2.7,13.1
			c-1.8,4-4.3,7.4-7.4,10.3c-3.1,2.9-6.8,5.2-11.1,6.8C692.2,347.2,687.6,348,682.6,348z M682.8,338.1c3.6,0,6.9-0.6,9.8-1.7
			c2.9-1.2,5.4-2.7,7.4-4.7c2.1-2,3.6-4.4,4.8-7.1c1.1-2.7,1.7-5.7,1.7-8.7v-0.3c0-3-0.6-5.7-1.8-8.3c-1.2-2.6-2.8-4.8-4.9-6.6
			c-2.1-1.9-4.6-3.3-7.6-4.4s-6.2-1.6-9.7-1.6c-3.6,0-7,0.6-10,1.8c-3,1.2-5.6,2.8-7.8,4.8c-2.1,2-3.8,4.3-5,6.8
			c-1.2,2.6-1.8,5.2-1.8,7.9v0.3c0,3.1,0.6,6,1.8,8.7c1.2,2.7,2.9,5,5.1,7c2.2,2,4.8,3.5,7.8,4.6
			C675.8,337.5,679.1,338.1,682.8,338.1z"/>
	</g>
</g>
</svg>
