<?xml version="1.0" encoding="utf-8"?>
<!-- Generator: Adobe Illustrator 17.1.0, SVG Export Plug-In . SVG Version: 6.00 Build 0)  -->
<!DOCTYPE svg PUBLIC "-//W3C//DTD SVG 1.0//EN" "http://www.w3.org/TR/2001/REC-SVG-20010904/DTD/svg10.dtd">
<svg version="1.0" id="Layer_1" xmlns="http://www.w3.org/2000/svg" xmlns:xlink="http://www.w3.org/1999/xlink" x="0px" y="0px"
	 viewBox="0 0 401 97.3" enable-background="new 0 0 401 97.3" xml:space="preserve">
<g>
	<path fill="#5B5C5C" d="M42.6,56.6l-3.2-6.2l21-11.7c-2.7-2.7-4.9-4.1-9.6-4.1c-8.1,0-13.9,6-13.9,14.7c0,8.7,5.8,14.7,13.9,14.7
		c9.2,0,12.7-5.5,14.2-13.3l7.9,1C72,63,63,71.5,50.8,71.5c-11.8,0-22-9-22-22.1s10.3-22.1,22-22.1c9.9,0,16.5,5.2,20.5,13.5
		L42.6,56.6z"/>
	<path fill="#5B5C5C" d="M81.2,70.6V8.7H89v61.9H81.2z"/>
	<path fill="#5B5C5C" d="M111.5,56.6l-3.2-6.2l21-11.7c-2.7-2.7-4.9-4.1-9.6-4.1c-8.1,0-13.9,6-13.9,14.7c0,8.7,5.8,14.7,13.9,14.7
		c9.2,0,12.7-5.5,14.2-13.3l7.9,1c-0.9,11.2-9.9,19.7-22.1,19.7c-11.8,0-22-9-22-22.1s10.3-22.1,22-22.1c9.9,0,16.5,5.2,20.5,13.5
		L111.5,56.6z"/>
	<path fill="#5B5C5C" d="M148.5,70.6V41.8c0-8,6.5-14.5,15.2-14.5c4.8,0,9.6,1.9,12.4,6c2.8-4.1,7.6-6,12.4-6
		c8.7,0,15.2,6.5,15.2,14.5v28.9h-7.8V43.5c0-5.4-3-8.9-7.6-8.9c-5,0-8.3,2.8-8.3,10.1v25.8h-7.8V44.8c0-7.3-3.3-10.1-8.3-10.1
		c-4.6,0-7.6,3.5-7.6,8.9v27.1H148.5z"/>
	<path fill="#5B5C5C" d="M224.6,56.6l-3.2-6.2l21-11.7c-2.7-2.7-4.9-4.1-9.6-4.1c-8.1,0-13.9,6-13.9,14.7c0,8.7,5.8,14.7,13.9,14.7
		c9.2,0,12.7-5.5,14.2-13.3l7.9,1C254,63,245,71.5,232.7,71.5c-11.8,0-22-9-22-22.1s10.3-22.1,22-22.1c9.9,0,16.5,5.2,20.5,13.5
		L224.6,56.6z"/>
	<path fill="#5B5C5C" d="M261.2,70.6V45.8c0-11.2,7.8-18.6,18.1-18.6c10.4,0,18.1,7.4,18.1,18.6v24.8h-7.8V45.8
		c0-6.5-4.8-11.2-10.4-11.2c-5.6,0-10.4,4.6-10.4,11.2v24.8H261.2z"/>
	<path fill="#5B5C5C" d="M329.7,35.6h-15.2v22.3c0,4,1.9,5.3,5.8,5.3h9.4v7.4h-10.4c-8,0-12.6-5.3-12.6-13.7V17.5h7.8v10.6h15.2
		V35.6z"/>
	<path fill="#5B5C5C" d="M355.6,27.2c11.8,0,22,9,22,22.1s-10.3,22.1-22,22.1c-11.8,0-22-9-22-22.1S343.8,27.2,355.6,27.2z
		 M355.6,64.1c8.1,0,13.9-6,13.9-14.7c0-8.7-5.8-14.7-13.9-14.7c-8.1,0-13.9,6-13.9,14.7C341.7,58,347.5,64.1,355.6,64.1z"/>
</g>
</svg>
