<?xml version="1.0" encoding="utf-8"?>
<!-- Generator: Adobe Illustrator 17.1.0, SVG Export Plug-In . SVG Version: 6.00 Build 0)  -->
<!DOCTYPE svg PUBLIC "-//W3C//DTD SVG 1.0//EN" "http://www.w3.org/TR/2001/REC-SVG-20010904/DTD/svg10.dtd">
<svg version="1.0" id="Camada_1" xmlns="http://www.w3.org/2000/svg" xmlns:xlink="http://www.w3.org/1999/xlink" x="0px" y="0px"
	 viewBox="0 0 595.3 316.1" enable-background="new 0 0 595.3 316.1" xml:space="preserve">
<g>
	<path fill-rule="evenodd" clip-rule="evenodd" fill="#FF5A00" d="M232.9,97.8c8.4,0,16.3,2.3,23,6.3l-10.3,15.2
		c-3.8-2-8.1-3.2-12.7-3.2c-14.8,0-26.9,12-26.9,26.9c0,14.8,12,26.9,26.9,26.9c7.1,0,13.6-2.8,18.4-7.3v-9.9h-17.6v-18.3h33.4v0.8
		h2.5v33.4h0l0.3,0.4c-8.2,11.6-21.7,19.2-36.9,19.2c-24.9,0-45.2-20.2-45.2-45.2C187.7,118.1,207.9,97.8,232.9,97.8L232.9,97.8z"/>
	<path fill-rule="evenodd" clip-rule="evenodd" fill="#FF5A00" d="M300.4,97.8c24.9,0,45.2,20.2,45.2,45.2
		c0,24.9-20.2,45.2-45.2,45.2c-24.9,0-45.2-20.2-45.2-45.2C255.3,118.1,275.5,97.8,300.4,97.8L300.4,97.8z M300.4,116.1
		c14.8,0,26.9,12,26.9,26.9c0,14.8-12,26.9-26.9,26.9c-14.8,0-26.9-12-26.9-26.9C273.6,128.2,285.6,116.1,300.4,116.1L300.4,116.1z"
		/>
	<path fill-rule="evenodd" clip-rule="evenodd" fill="#BABBBB" d="M327.5,97.8c24.9,0,45.2,20.2,45.2,45.2
		c0,24.9-20.2,45.2-45.2,45.2c-24.9,0-45.2-20.2-45.2-45.2c0-9.1,2.7-17.5,7.3-24.6c3.3-1.5,7-2.3,10.9-2.3c4.9,0,9.5,1.3,13.5,3.6
		c-8,4.7-13.3,13.3-13.3,23.2c0,14.8,12,26.9,26.9,26.9c14.8,0,26.9-12,26.9-26.9c0-11-6.6-20.4-16-24.6
		c-5.7-8.7-14.3-15.4-24.4-18.5C318.2,98.6,322.8,97.8,327.5,97.8L327.5,97.8z"/>
	<polygon fill-rule="evenodd" clip-rule="evenodd" fill="#FF5A00" points="358.6,97.8 376.9,97.8 376.9,188.1 358.6,188.1 
		358.6,97.8 	"/>
	<polygon fill-rule="evenodd" clip-rule="evenodd" fill="#FF5A00" points="358.6,188.1 358.6,169.9 407.6,169.9 407.6,188.1 
		358.6,188.1 	"/>
	<path fill-rule="evenodd" clip-rule="evenodd" fill="#FF5A00" d="M195.1,214h7.2l0-1.5h-5.5l0-12.2H195L195.1,214L195.1,214z
		 M338.5,199.7h1.2h0.5h1.2l0.1,14.4h-1.7l-0.1-12.7h-1.2V199.7L338.5,199.7z M307.7,204.3h1.2h0.5h1.2l0,9.8h-1.7l0-8.1h-1.2V204.3
		L307.7,204.3z M202.7,204.3h1.2h0.5h1.2l0,9.8H204l0-8.1h-1.2V204.3L202.7,204.3z M204.9,202.6c0.7,0,1-0.5,0.9-1.1
		c-0.1-0.6-0.6-1.1-1.2-1.1c-0.6,0-1,0.5-0.9,1.1C203.8,202.2,204.3,202.6,204.9,202.6L204.9,202.6z M210.3,214l0-4.8
		c0-2.4,1.4-3.9,2.6-3.9c1.2,0,1.7,0.7,1.9,1.7c0.1,0.4,0.1,0.9,0.1,1.3l0,5.7h1.7l0-5.7c0-0.5,0-1.1-0.1-1.6c-0.4-2-1.8-2.7-3-2.7
		c-1.4,0-2.6,0.8-3.2,2.1h0l-0.1-1.9h-1.5c0.1,0.8,0.1,1.8,0.1,2.9l0.1,6.9H210.3L210.3,214z M221.1,214l0-4.9
		c0-2.2,1.3-3.7,2.6-3.7c1.1,0,1.7,0.7,1.8,1.6c0.1,0.5,0.1,1,0.1,1.4l0,5.7h1.7l0-5.7c0-0.5-0.1-1.1-0.2-1.6
		c-0.4-2-1.8-2.6-2.9-2.6c-1.5,0-2.5,0.7-3.1,1.9h0l0-6.3h-1.7l0.1,14.4H221.1L221.1,214z M238.3,214c-0.3-1.1-0.5-2.8-0.5-4.5
		l0-5.1c-0.7-0.2-1.8-0.4-2.7-0.4c-4.3,0-6.1,3.6-5.4,7c0.4,1.9,1.7,3.2,3.4,3.2c1.4,0,2.6-0.7,3.3-2.7h0c0.1,1,0.2,1.9,0.3,2.5
		H238.3L238.3,214z M236.1,208.5c0,2.6-1.3,4.4-2.7,4.4c-1.3,0-1.9-1.1-2.1-2.2c-0.5-2.7,1-5.4,3.6-5.4c0.6,0,0.9,0.1,1.2,0.1
		L236.1,208.5L236.1,208.5z M240.3,213.6c0.5,0.3,1.5,0.6,2.6,0.7c2.1,0,3.5-1.2,3.1-3.2c-0.2-1.1-1.1-2-2.3-2.6
		c-1-0.5-1.5-0.9-1.7-1.6c-0.2-0.8,0.4-1.5,1.5-1.5c0.7,0,1.4,0.2,1.8,0.4l0.2-1.3c-0.4-0.2-1.2-0.5-2.1-0.5c-2.1,0-3.3,1.3-3,3
		c0.2,1,1,1.9,2.2,2.5c1.1,0.6,1.6,1,1.7,1.8c0.2,0.9-0.4,1.6-1.6,1.6c-0.8,0-1.7-0.3-2.2-0.6L240.3,213.6L240.3,213.6z M260,214
		c-0.3-1.1-0.5-2.8-0.5-4.5l0-5.1c-0.7-0.2-1.8-0.4-2.7-0.4c-4.3,0-6.1,3.6-5.4,7c0.4,1.9,1.7,3.2,3.4,3.2c1.4,0,2.6-0.7,3.3-2.7h0
		c0.1,1,0.2,1.9,0.3,2.5H260L260,214z M257.9,208.5c0,2.6-1.3,4.4-2.7,4.4c-1.3,0-1.9-1.1-2.1-2.2c-0.5-2.7,1-5.4,3.6-5.4
		c0.6,0,0.9,0.1,1.2,0.1L257.9,208.5L257.9,208.5z M269,212.2c-0.5,0.3-1.3,0.7-2.5,0.7c-1,0-1.9-0.4-2.4-1.3
		c-0.3-0.5-0.6-1.4-0.6-1.9c3.6,0.1,6.4-0.6,5.9-3.2c-0.3-1.4-1.5-2.5-3.4-2.5c-3.2,0-4.7,3.3-4.1,6.3c0.4,2.2,1.9,3.9,4.5,3.9
		c1.3,0,2.4-0.4,3.1-0.8L269,212.2L269,212.2z M267.8,206.6c0.3,1.5-1.7,1.9-4.4,1.9c0.1-1.5,1-3.1,2.6-3.1
		C266.9,205.4,267.6,205.8,267.8,206.6L267.8,206.6z M266.4,200.2l-1.4,2.9h1.3l2.1-2.9H266.4L266.4,200.2z M273.4,214l0-4.3
		c0-2.3,0.9-4,2.4-4c0.2,0,0.3,0,0.5,0l0-1.7c-0.1,0-0.3,0-0.5,0c-1.3,0-2.2,1-2.5,2.3h-0.1c0-0.7-0.1-1.4-0.1-2.1h-1.5
		c0.1,0.9,0.2,2.2,0.2,3.5l0,6.3H273.4L273.4,214z M284.5,212.2c-0.5,0.3-1.3,0.7-2.5,0.7c-1,0-1.9-0.4-2.4-1.3
		c-0.3-0.5-0.6-1.4-0.6-1.9c3.6,0.1,6.4-0.6,5.9-3.2c-0.3-1.4-1.5-2.5-3.4-2.5c-3.2,0-4.7,3.3-4.1,6.3c0.4,2.2,1.9,3.9,4.5,3.9
		c1.3,0,2.4-0.4,3.1-0.8L284.5,212.2L284.5,212.2z M283.2,206.6c0.3,1.5-1.7,1.9-4.4,1.9c0.1-1.5,1-3.1,2.6-3.1
		C282.4,205.4,283.1,205.8,283.2,206.6L283.2,206.6z M295.2,214c-0.3-1.1-0.5-2.8-0.5-4.5l0-5.1c-0.7-0.2-1.8-0.4-2.7-0.4
		c-4.3,0-6.1,3.6-5.4,7c0.4,1.9,1.7,3.2,3.4,3.2c1.4,0,2.6-0.7,3.3-2.7h0c0.1,1,0.2,1.9,0.3,2.5H295.2L295.2,214z M293.1,208.5
		c0,2.6-1.3,4.4-2.7,4.4c-1.3,0-1.9-1.1-2.1-2.2c-0.5-2.7,1-5.4,3.6-5.4c0.6,0,0.9,0.1,1.2,0.1L293.1,208.5L293.1,208.5z
		 M297.2,213.6c0.5,0.3,1.5,0.6,2.6,0.7c2.1,0,3.5-1.2,3.1-3.2c-0.2-1.1-1.1-2-2.3-2.6c-1-0.5-1.5-0.9-1.7-1.6
		c-0.2-0.8,0.4-1.5,1.5-1.5c0.7,0,1.4,0.2,1.8,0.4l0.2-1.3c-0.4-0.2-1.2-0.5-2.1-0.5c-2.1,0-3.3,1.3-3,3c0.2,1,1,1.9,2.2,2.5
		c1.1,0.6,1.6,1,1.7,1.8c0.2,0.9-0.4,1.6-1.6,1.6c-0.8,0-1.7-0.3-2.2-0.6L297.2,213.6L297.2,213.6z M309.8,202.6
		c0.7,0,1-0.5,0.9-1.1c-0.1-0.6-0.6-1.1-1.2-1.1c-0.6,0-1,0.5-0.9,1.1C308.8,202.2,309.3,202.6,309.8,202.6L309.8,202.6z M315.2,214
		l0-4.8c0-2.4,1.4-3.9,2.6-3.9c1.2,0,1.7,0.7,1.9,1.7c0.1,0.4,0.1,0.9,0.1,1.3l0,5.7h1.7l0-5.7c0-0.5,0-1.1-0.1-1.6
		c-0.4-2-1.8-2.7-3-2.7c-1.4,0-2.6,0.8-3.2,2.1h0l-0.1-1.9h-1.5c0.1,0.8,0.1,1.8,0.1,2.9l0.1,6.9H315.2L315.2,214z M324.7,202.4
		l0,1.8h-1.4l0,1.3h1.4l0,5c0,0.7,0,1.3,0.1,1.8c0.2,1,1,1.9,2.4,1.9c0.5,0,1-0.1,1.3-0.2l-0.2-1.3c-0.2,0.1-0.5,0.1-0.8,0.1
		c-0.6,0-1-0.4-1.1-1c-0.1-0.5-0.1-1-0.1-1.6l0-4.8h2.3l0-1.3h-2.3l0-2.3L324.7,202.4L324.7,202.4z M337.1,212.2
		c-0.5,0.3-1.3,0.7-2.5,0.7c-1,0-1.9-0.4-2.4-1.3c-0.3-0.5-0.6-1.4-0.6-1.9c3.6,0.1,6.4-0.6,5.9-3.2c-0.3-1.4-1.5-2.5-3.4-2.5
		c-3.2,0-4.7,3.3-4.1,6.3c0.4,2.2,1.9,3.9,4.5,3.9c1.3,0,2.4-0.4,3.1-0.8L337.1,212.2L337.1,212.2z M335.8,206.6
		c0.3,1.5-1.7,1.9-4.4,1.9c0.1-1.5,1-3.1,2.6-3.1C335,205.4,335.7,205.8,335.8,206.6L335.8,206.6z M346.1,214l0-9.8h-1.7l0,9.8
		H346.1L346.1,214z M345.3,202.6c0.7,0,1-0.5,0.9-1.1c-0.1-0.6-0.6-1.1-1.2-1.1c-0.6,0-1,0.5-0.9,1.1
		C344.3,202.2,344.7,202.6,345.3,202.6L345.3,202.6z M349.3,217.6c0.7,0.4,1.9,0.7,3.1,0.7c1.1,0,2.4-0.2,3.2-1.1
		c0.8-0.9,1.1-2.3,1.1-4.4l-0.1-8.1c-0.8-0.4-2.2-0.7-3.3-0.7c-3.8,0-5.6,3.3-4.9,6.6c0.3,1.7,1.7,3.4,3.7,3.4c1.3,0,2.4-0.7,3-2.1
		h0l0,1.5c-0.1,2.6-1.2,3.5-2.8,3.5c-1,0-2.1-0.3-2.7-0.6L349.3,217.6L349.3,217.6z M355,209c0,1.9-1.1,3.7-2.5,3.7
		c-1.5,0-2.1-1.3-2.3-2.3c-0.5-2.4,0.7-5,3.2-5c0.7,0,1.3,0.2,1.7,0.3L355,209L355,209z M366.1,212.2c-0.5,0.3-1.3,0.7-2.5,0.7
		c-1,0-1.9-0.4-2.4-1.3c-0.3-0.5-0.6-1.4-0.6-1.9c3.6,0.1,6.4-0.6,5.9-3.2c-0.3-1.4-1.5-2.5-3.4-2.5c-3.2,0-4.7,3.3-4.1,6.3
		c0.4,2.2,1.9,3.9,4.5,3.9c1.3,0,2.4-0.4,3.1-0.8L366.1,212.2L366.1,212.2z M364.9,206.6c0.3,1.5-1.7,1.9-4.4,1.9
		c0.1-1.5,1-3.1,2.6-3.1C364,205.4,364.7,205.8,364.9,206.6L364.9,206.6z M370.5,214l0-4.8c0-2.4,1.4-3.9,2.6-3.9
		c1.2,0,1.7,0.7,1.9,1.7c0.1,0.4,0.1,0.9,0.1,1.3l0,5.7h1.7l0-5.7c0-0.5,0-1.1-0.1-1.6c-0.4-2-1.8-2.7-3-2.7c-1.4,0-2.6,0.8-3.2,2.1
		h0l-0.1-1.9h-1.5c0.1,0.8,0.1,1.8,0.1,2.9l0.1,6.9H370.5L370.5,214z M379.9,202.4l0,1.8h-1.4l0,1.3h1.4l0,5c0,0.7,0,1.3,0.1,1.8
		c0.2,1,1,1.9,2.4,1.9c0.5,0,1-0.1,1.3-0.2l-0.2-1.3c-0.2,0.1-0.5,0.1-0.8,0.1c-0.6,0-1-0.4-1.1-1c-0.1-0.5-0.1-1-0.1-1.6l0-4.8h2.3
		l0-1.3h-2.3l0-2.3L379.9,202.4L379.9,202.4z M392.3,212.2c-0.5,0.3-1.3,0.7-2.5,0.7c-1,0-1.9-0.4-2.4-1.3c-0.3-0.5-0.6-1.4-0.6-1.9
		c3.6,0.1,6.4-0.6,5.9-3.2c-0.3-1.4-1.5-2.5-3.4-2.5c-3.2,0-4.7,3.3-4.1,6.3c0.4,2.2,1.9,3.9,4.5,3.9c1.3,0,2.4-0.4,3.1-0.8
		L392.3,212.2L392.3,212.2z M391.1,206.6c0.3,1.5-1.7,1.9-4.4,1.9c0.1-1.5,1-3.1,2.6-3.1C390.2,205.4,390.9,205.8,391.1,206.6
		L391.1,206.6z M394.5,213.6c0.5,0.3,1.5,0.6,2.6,0.7c2.1,0,3.5-1.2,3.1-3.2c-0.2-1.1-1.1-2-2.3-2.6c-1-0.5-1.5-0.9-1.7-1.6
		c-0.2-0.8,0.4-1.5,1.5-1.5c0.7,0,1.4,0.2,1.8,0.4l0.2-1.3c-0.4-0.2-1.2-0.5-2.1-0.5c-2.1,0-3.3,1.3-3,3c0.2,1,1,1.9,2.2,2.5
		c1.1,0.6,1.6,1,1.7,1.8c0.2,0.9-0.4,1.6-1.6,1.6c-0.8,0-1.7-0.3-2.2-0.6L394.5,213.6L394.5,213.6z"/>
</g>
</svg>
