<?xml version="1.0" encoding="utf-8"?>
<!-- Generator: Adobe Illustrator 19.0.0, SVG Export Plug-In . SVG Version: 6.00 Build 0)  -->
<svg version="1.0" id="Camada_1" xmlns="http://www.w3.org/2000/svg" xmlns:xlink="http://www.w3.org/1999/xlink" x="0px" y="0px"
	 viewBox="0 262.8 595.3 316.1" enable-background="new 0 262.8 595.3 316.1" xml:space="preserve">
<g>
	<path fill="#443D3D" d="M86.4,428.9v6.4h4.9c2.4,0,3.5-1.5,3.5-3.2c0-1.7-1.1-3.2-3.5-3.2H86.4L86.4,428.9z M86.4,419.9v6.1H91
		c2.3,0,3.4-1.4,3.4-3c0-1.6-1.1-3-3.4-3H86.4L86.4,419.9z M83.2,417.1h8.2c4.1,0,6.3,2.4,6.3,5.7c0,1.8-0.7,3.5-3.1,4.6v0.1
		c2.3,0.5,3.5,2.7,3.5,4.9c0,3.7-2.7,6-5.9,6h-8.9V417.1L83.2,417.1z"/>
	<path fill="#443D3D" d="M109.8,429.4c-0.1-2.3-1.4-3.5-3.2-3.5s-3.1,1.2-3.2,3.5H109.8L109.8,429.4z M103.4,431.9
		c0,2.5,1.5,3.7,3.6,3.7c1.2,0,2.4-0.5,3.3-1.5l2.2,1.9c-1.5,1.7-3.4,2.4-5.5,2.4c-3.1,0-6.7-1.5-6.7-7.7c0-5.9,3.3-7.8,6.2-7.8
		c3.3,0,6.2,2.5,6.2,6.4v2.5H103.4L103.4,431.9z"/>
	<path fill="#443D3D" d="M116,423.2h3v1.6h0.1c1-1.2,2.3-1.8,3.9-1.8c2.4,0,5,1.8,5,5.2v10h-3v-9c0-2.1-1.3-3.2-3-3.2
		c-1.7,0-3,1.2-3,3.2v9h-3V423.2L116,423.2z"/>
	<path fill="#443D3D" d="M140.7,429.4c-0.1-2.3-1.4-3.5-3.2-3.5c-1.8,0-3.1,1.2-3.2,3.5H140.7L140.7,429.4z M134.3,431.9
		c0,2.5,1.5,3.7,3.6,3.7c1.2,0,2.4-0.5,3.3-1.5l2.2,1.9c-1.5,1.7-3.4,2.4-5.5,2.4c-3.1,0-6.7-1.5-6.7-7.7c0-5.9,3.3-7.8,6.2-7.8
		c3.3,0,6.2,2.5,6.2,6.4v2.5H134.3L134.3,431.9z"/>
	<path fill="#443D3D" d="M147.4,425.5h-1.5v-2.3h1.5v-2c0-2.8,1.8-4.1,4.1-4.1h2v2.9h-1.7c-1,0-1.3,0.3-1.3,1.3v2h3v2.3h-3v12.8h-3
		V425.5L147.4,425.5z"/>
	<path fill="#443D3D" d="M155.3,423.2h3v15.1h-3V423.2L155.3,423.2z M157.2,416.9h4l-4.2,4.3h-2.5L157.2,416.9L157.2,416.9z"/>
	<path fill="#443D3D" d="M173.4,435.8c-1.3,1.5-3.1,2.6-5.4,2.6c-3.5,0-6.9-2.2-6.9-7.7c0-5.5,3.4-7.7,6.9-7.7
		c2.3,0,4.1,1.1,5.4,2.6l-2.2,2c-0.7-0.9-1.8-1.6-3.1-1.6c-2.5,0-3.9,1.4-3.9,4.7c0,3.3,1.5,4.7,3.9,4.7c1.3,0,2.3-0.7,3.1-1.6
		L173.4,435.8L173.4,435.8z"/>
	<path fill="#443D3D" d="M175.6,423.2h3v15.1h-3V423.2L175.6,423.2z M175.6,417.1h3v3h-3V417.1L175.6,417.1z"/>
	<path fill="#443D3D" d="M190.6,427.1c-0.4-0.6-1.4-1.1-2.4-1.1c-1,0-2,0.5-2.4,1.1c-0.6,0.8-0.7,1.4-0.7,3.6c0,2.2,0.2,2.8,0.7,3.6
		c0.4,0.6,1.4,1.1,2.4,1.1c1,0,2-0.5,2.4-1.1c0.6-0.8,0.7-1.4,0.7-3.6C191.4,428.5,191.2,427.9,190.6,427.1L190.6,427.1z
		 M183.6,424.9c0.8-0.9,2.2-1.9,4.6-1.9c2.4,0,3.8,1,4.6,1.9c1.2,1.3,1.6,2.5,1.6,5.8c0,3.3-0.5,4.5-1.6,5.8
		c-0.8,0.9-2.2,1.9-4.6,1.9c-2.4,0-3.8-1-4.6-1.9c-1.2-1.3-1.6-2.5-1.6-5.8C181.9,427.5,182.4,426.2,183.6,424.9L183.6,424.9z"/>
	<path fill="#D71920" d="M198.1,433.1c1.6,1.3,3.8,2.1,6,2.1c2.6,0,4.2-1.2,4.2-2.9c0-1.5-0.9-2.6-2.8-2.9c-1-0.1-1.7-0.2-2.8-0.4
		c-3.7-0.5-5.6-2.9-5.6-6c0-3.6,2.5-6.2,6.9-6.2c2.6,0,4.9,0.9,6.9,2.2l-1.8,2.7c-1.5-1-3.4-1.6-5.2-1.6c-2,0-3.5,1-3.5,3
		c0,1.2,0.9,2.4,3,2.7c0.6,0.1,1.4,0.2,2.4,0.3c4,0.5,5.8,3.2,5.8,6.1c0,3.9-2.9,6.2-7.4,6.2c-3.1,0-5.9-1-8.1-2.9L198.1,433.1
		L198.1,433.1z"/>
	<path fill="#D71920" d="M218.2,427h4.8c2.4,0,3.5-1.8,3.5-3.4c0-1.4-0.6-2.3-1.4-2.8c-0.7-0.5-1.4-0.6-2.3-0.6h-4.6V427L218.2,427z
		 M215,417.1h7.7c1.7,0,3.1,0.2,4.8,1.5c1.3,1,2.3,2.8,2.3,5.1c0,3-2.3,6.4-6.6,6.4h-4.9v8.3H215V417.1L215,417.1z"/>
</g>
<g>
	<rect x="448.5" y="386.9" fill-rule="evenodd" clip-rule="evenodd" fill="#B92218" width="74.1" height="78.6"/>
	<path fill-rule="evenodd" clip-rule="evenodd" fill="#FFFFFF" d="M469.7,399.6c-0.4-0.6-1.1-1.2-2-1.2c-1.3,0-1.3,0.9-1.3,1
		c0,0.8,0.7,1.1,1.4,1.3l1.4,0.5c0.7,0.2,1.5,0.7,1.9,1.3c0.1,0.2,0.6,0.9,0.6,1.9c0,0.5,0,1.9-1.6,2.8c-0.7,0.4-1.6,0.5-2.2,0.5
		c-2,0-3.2-0.5-4.2-2.2l1.9-1.2c0.4,0.9,1.2,1.5,2.1,1.5c0.5,0,1.5-0.2,1.5-1.2c0-0.8-0.5-1-2.2-1.6c-1.7-0.6-3.2-1.3-3.2-3.5
		c0-1.8,1.4-3,3.7-3c1.7,0,2.8,0.6,3.8,1.9L469.7,399.6z"/>
	<path fill-rule="evenodd" clip-rule="evenodd" fill="#FFFFFF" d="M476.2,398.6L476.2,398.6l-1.3,4.9h2.6L476.2,398.6z M477.7,396.7
		l3.3,10.7l-2.4,0l-0.6-2.1l-3.5,0l-0.6,2.1l-2.4,0l3.2-10.7H477.7z"/>
	<path fill-rule="evenodd" clip-rule="evenodd" fill="#FFFFFF" d="M483.3,403.9c0,1.1,0.2,1.9,1.3,1.9c1.3,0,1.3-1.2,1.3-1.9l0-3.7
		c0-0.7,0-1.6-1.3-1.6c-1.4,0-1.4,1.2-1.4,1.6L483.3,403.9z M480.7,400.5c0-1.1,0.2-2.2,1-3c0.7-0.7,1.8-1,2.9-1c1.2,0,2.2,0.3,3,1
		c0.6,0.6,1,1.6,1,3.3l0,2.6c0,1.5-0.3,2.5-1,3.2c-0.9,1-2.3,1.1-3,1.1c-1.1,0-2.9-0.4-3.5-2.2c-0.2-0.8-0.3-1.7-0.3-2.2
		L480.7,400.5z"/>
	<path fill-rule="evenodd" clip-rule="evenodd" fill="#FFFFFF" d="M467.1,414.1c1.2,0,1.6,0,1.9-0.1c0.2-0.1,0.9-0.4,0.9-1.5
		c0-1-0.4-1.3-0.8-1.4c-0.4-0.1-0.6-0.1-2.1-0.1L467.1,414.1z M464.6,409.2l3.7,0c1.7,0,2.6,0.3,3.2,0.9c0.7,0.6,1,1.5,1,2.5
		c0,1.7-1,2.5-1.5,2.7c-0.8,0.5-1.7,0.5-2.6,0.5l-1.4,0l0,4h-2.5L464.6,409.2z"/>
	<path fill-rule="evenodd" clip-rule="evenodd" fill="#FFFFFF" d="M475.8,411.1L475.8,411.1l-1.3,4.8l2.6,0L475.8,411.1z
		 M477.3,409.2l3.3,10.7l-2.4,0l-0.6-2.1l-3.5,0l-0.6,2.1l-2.4,0l3.2-10.7L477.3,409.2z"/>
	<path fill-rule="evenodd" clip-rule="evenodd" fill="#FFFFFF" d="M480.6,409.2h2.6l0,7.1c0,0.6,0,2,1.5,2c0.5,0,1.6,0,1.6-2l0-7.1
		l2.5,0l0,7.1c0,0.6,0,2.2-1.2,3.1c-0.8,0.6-1.8,0.8-2.8,0.8c-1.2,0-2.4-0.3-3.1-0.9c-1.1-1-1.1-2.2-1.1-3.2L480.6,409.2z"/>
	<polygon fill-rule="evenodd" clip-rule="evenodd" fill="#FFFFFF" points="489.6,409.2 492.1,409.2 492.1,418 497.1,418 497.1,420 
		489.6,420 	"/>
	<path fill-rule="evenodd" clip-rule="evenodd" fill="#FFFFFF" d="M499.8,416.4c0,1.1,0.2,1.9,1.3,1.9c1.3,0,1.3-1.2,1.3-1.9l0-3.7
		c0-0.7,0-1.7-1.3-1.7c-1.4,0-1.4,1.2-1.4,1.6L499.8,416.4z M497.3,413c0-1.1,0.2-2.1,1-3c0.7-0.7,1.8-1,2.8-1c1.2,0,2.2,0.3,3,1
		c0.6,0.6,1,1.6,1,3.3l0,2.6c0,1.5-0.3,2.5-1,3.2c-0.9,1-2.3,1.1-3,1.1c-1.1,0-2.9-0.4-3.5-2.2c-0.2-0.8-0.3-1.7-0.3-2.2V413z"/>
	<polygon fill-rule="evenodd" clip-rule="evenodd" fill="#FFFFFF" points="464.5,421.7 472.1,421.7 472.1,423.7 466.9,423.7 
		466.9,426 470.5,426 470.5,427.9 467,427.9 467,430.5 472.4,430.5 472.4,432.5 464.4,432.5 	"/>
	<polygon fill-rule="evenodd" clip-rule="evenodd" fill="#FFFFFF" points="484,421.8 484,423.7 481.2,423.7 481.2,432.5 
		478.6,432.5 478.6,423.7 475.7,423.7 475.7,421.7 	"/>
	<path fill-rule="evenodd" clip-rule="evenodd" fill="#FFFFFF" d="M484.5,421.8h2.6l0,7.1c0,0.6,0,2,1.5,2c0.5,0,1.6,0,1.6-2l0-7.1
		l2.5,0l0,7.1c0,0.6,0,2.2-1.2,3.1c-0.8,0.6-1.8,0.8-2.8,0.8c-1.2,0-2.4-0.3-3.1-0.9c-1.1-1-1.1-2.2-1.1-3.2L484.5,421.8z"/>
	<path fill-rule="evenodd" clip-rule="evenodd" fill="#FFFFFF" d="M496.1,430.6l0.7,0c1,0,2-0.2,2-2.2c0-0.4,0-1,0-1.3
		c0-1.3,0-2.2-0.4-2.7c-0.5-0.7-1-0.7-2.4-0.7L496.1,430.6z M493.6,421.8l2.8,0c2.8,0,3.7,0.5,4.4,1.4c0.5,0.7,0.7,1.4,0.7,3.8
		l0,1.8c0,1.2-0.3,2.5-1.6,3.1c-0.8,0.4-1.5,0.5-2.4,0.5c-0.3,0-1.9,0-3.8,0L493.6,421.8z"/>
	<path fill-rule="evenodd" clip-rule="evenodd" fill="#FFFFFF" d="M504.6,428.9c0,1.1,0.2,1.9,1.3,1.9c1.3,0,1.3-1.2,1.3-1.9l0-3.7
		c0-0.7,0-1.7-1.3-1.7c-1.4,0-1.4,1.2-1.4,1.7L504.6,428.9z M502.1,425.6c0-1.1,0.2-2.1,1-3c0.7-0.7,1.8-1,2.8-1c1.2,0,2.2,0.3,3,1
		c0.6,0.6,1,1.6,1,3.3l0,2.6c0,1.5-0.3,2.5-1,3.2c-0.9,1-2.3,1.1-3,1.1c-1.1,0-2.9-0.4-3.5-2.2c-0.2-0.8-0.3-1.7-0.3-2.2
		L502.1,425.6z"/>
	<path fill-rule="evenodd" clip-rule="evenodd" fill="#FFFFFF" d="M466.9,443.1l0.7,0c1,0,2-0.2,2-2.2c0-0.4,0-1,0-1.3
		c0-1.3,0-2.2-0.4-2.7c-0.5-0.7-1-0.7-2.4-0.7L466.9,443.1z M464.3,434.3l2.8,0c2.8,0,3.7,0.5,4.4,1.4c0.5,0.7,0.7,1.4,0.7,3.8
		l0,1.8c0,1.2-0.3,2.5-1.6,3.1c-0.8,0.4-1.5,0.5-2.4,0.5c-0.3,0-2,0-3.8,0L464.3,434.3z"/>
	<polygon fill-rule="evenodd" clip-rule="evenodd" fill="#FFFFFF" points="472.9,434.3 480.5,434.3 480.5,436.2 475.4,436.2 
		475.4,438.5 478.9,438.5 478.9,440.5 475.4,440.5 475.4,443 480.9,443 480.9,445 472.9,445 	"/>
	<path fill-rule="evenodd" clip-rule="evenodd" fill="#FFFFFF" d="M467,455.8h1.2c1,0,1.6-0.4,1.6-1.5c0-0.5-0.1-1.1-0.7-1.3
		c-0.4-0.1-1.2-0.1-2.1-0.1L467,455.8z M467,451.2c2,0,2.6-0.1,2.6-1.4c0-1.3-1-1.3-1.5-1.3H467L467,451.2z M464.6,446.8l3.7,0
		c1,0,1.9,0.1,2.6,0.4c0.8,0.5,1.2,1.4,1.2,2.3c0,1.3-0.7,2.1-1.6,2.3v0.1c0.8,0.1,1.8,0.9,1.8,2.5c0,0.8-0.1,1.6-0.9,2.3
		c-0.8,0.8-1.8,0.8-3.2,0.8l-3.7,0L464.6,446.8z"/>
	<path fill-rule="evenodd" clip-rule="evenodd" fill="#FFFFFF" d="M475.3,453.9c0,1.1,0.2,1.9,1.3,1.9c1.3,0,1.3-1.2,1.3-1.9l0-3.7
		c0-0.7,0-1.7-1.3-1.7c-1.4,0-1.4,1.2-1.4,1.6L475.3,453.9z M472.8,450.6c0-1.1,0.2-2.1,1-3c0.7-0.7,1.8-1,2.8-1c1.2,0,2.2,0.3,3,1
		c0.6,0.6,1,1.6,1,3.3l0,2.6c0,1.5-0.3,2.5-1,3.2c-0.9,1-2.3,1.1-3,1.1c-1.1,0-2.9-0.4-3.5-2.2c-0.2-0.8-0.3-1.7-0.3-2.2
		L472.8,450.6z"/>
	<path fill-rule="evenodd" clip-rule="evenodd" fill="#FFFFFF" d="M481.5,446.8h3.3l1.3,4.5c0.1,0.5,0.2,0.6,0.3,1.1
		c0.1,0.2,0.3,1.2,0.3,1.3h0.1c0.2-0.9,0.3-1.6,0.6-2.5l1.3-4.4l3.4,0l0,10.7l-2.2,0l0-5.8c0-0.8,0.1-2,0.1-3h-0.1l-2.4,8.8H486
		l-2.4-8.8h-0.1c0,0.5,0.1,2.7,0.1,3.1l0,5.7h-2.2L481.5,446.8z"/>
	<rect x="492.6" y="455.8" fill-rule="evenodd" clip-rule="evenodd" fill="#FFFFFF" width="1.8" height="1.7"/>
	<path fill-rule="evenodd" clip-rule="evenodd" fill="#FFFFFF" d="M476,394.5c-0.2-0.1-0.4-0.1-0.5-0.1c-0.6,0-1.1,0.2-1.3,1.3h0.7
		c0-0.1,0.1-0.4,0.5-0.4c0.1,0,0.3,0,0.4,0.1l0.4,0.1c0.6,0.2,0.6,0.2,0.8,0.2c0.9,0,1.2-0.9,1.2-1.3l-0.7,0c0,0.1-0.1,0.4-0.5,0.4
		c-0.1,0-0.3-0.1-0.4-0.1L476,394.5z"/>
	<polygon fill-rule="evenodd" clip-rule="evenodd" fill="#FFFFFF" points="468.3,419.5 467.3,421 468.4,421 470,419.5 	"/>
	<rect x="306.1" y="386.9" fill-rule="evenodd" clip-rule="evenodd" fill="#FFFFFF" width="142.4" height="78.6"/>
	<path fill-rule="evenodd" clip-rule="evenodd" fill="#8D8B8C" d="M419.4,445.2c0-0.6,0.3-1.3,1-1.3c0.7,0,0.9,0.8,0.9,1.3
		c0,0.6-0.2,1.4-0.9,1.4C419.6,446.5,419.4,445.8,419.4,445.2 M418.3,447.3h1.1v-0.5h0c0.3,0.5,0.8,0.6,1.3,0.6
		c1.3,0,1.8-1.1,1.8-2.2c0-1.2-0.5-2.2-1.8-2.2c-0.6,0-1,0.2-1.3,0.6h0v-2.5h-1.1V447.3z"/>
	<path fill="#8D8B8C" d="M426.9,443.1h-1.1v2.1c0,0.5-0.2,1.4-1,1.4c-0.7,0-0.7-0.7-0.7-1.2v-2.3h-1.1v2.7c0,1,0.4,1.7,1.5,1.7
		c0.6,0,1.1-0.3,1.4-0.7h0v0.6h1.1V443.1z"/>
	<path fill="#8D8B8C" d="M427.5,447.3h1.1v-1.6c0-0.6,0-1.7,0.9-1.7c0.2,0,0.4,0,0.5,0.1V443c-0.1,0-0.2,0-0.3,0
		c-0.7,0-1.1,0.7-1.2,1.1h0v-1h-1V447.3z"/>
	<path fill-rule="evenodd" clip-rule="evenodd" fill="#8D8B8C" d="M431.1,444.8c0-0.6,0.4-1,1-1c0.6,0,0.9,0.5,0.9,1H431.1z
		 M433.8,446.2c-0.4,0.2-0.9,0.4-1.4,0.4c-0.7,0-1.2-0.4-1.2-1.1h3c0-1.5-0.5-2.6-2.1-2.6c-1.3,0-2,1-2,2.2c0,1.4,0.8,2.2,2.3,2.2
		c0.6,0,1.1-0.1,1.5-0.3V446.2z"/>
	<path fill-rule="evenodd" clip-rule="evenodd" fill="#8D8B8C" d="M434.7,444.2c0.4-0.3,0.9-0.5,1.3-0.5c0.7,0,1,0.2,1,0.9h-0.6
		c-0.5,0-1,0-1.5,0.2c-0.4,0.2-0.7,0.6-0.7,1.2c0,0.8,0.7,1.3,1.5,1.3c0.5,0,1.1-0.3,1.3-0.7h0c0,0.1,0,0.4,0.1,0.6h1
		c0-0.3,0-0.6-0.1-0.9c0-0.3,0-0.6,0-1.1v-0.5c0-1.2-0.5-1.8-1.9-1.8c-0.5,0-1.1,0.1-1.5,0.3L434.7,444.2z M435.3,446.1
		c0-0.6,0.7-0.7,1.3-0.7h0.5c0,0.3-0.1,0.6-0.2,0.9c-0.2,0.2-0.4,0.4-0.8,0.4C435.6,446.6,435.3,446.4,435.3,446.1"/>
	<path fill="#8D8B8C" d="M442.6,443.1h-1.1v2.1c0,0.5-0.2,1.4-1,1.4c-0.7,0-0.7-0.7-0.7-1.2v-2.3h-1.1v2.7c0,1,0.4,1.7,1.5,1.7
		c0.6,0,1.1-0.3,1.4-0.7h0v0.6h1.1V443.1z"/>
	<path fill-rule="evenodd" clip-rule="evenodd" fill="#8D8B8C" d="M390.8,446.1c-0.3,0.2-0.6,0.3-1,0.3c-0.5,0-1-0.3-1-0.9
		c0-0.5,0.3-0.7,0.7-0.9L390.8,446.1z M389.7,443.6c-0.2-0.2-0.6-0.5-0.6-0.8c0-0.4,0.3-0.6,0.7-0.6c0.3,0,0.6,0.2,0.6,0.6
		C390.5,443.1,390,443.4,389.7,443.6 M390.4,444.2c0.6-0.4,1.1-0.7,1.1-1.5c0-0.9-0.9-1.3-1.7-1.3c-0.8,0-1.8,0.4-1.8,1.3
		c0,0.7,0.4,1,0.8,1.4c-0.9,0.4-1.2,0.9-1.2,1.6c0,1.1,0.9,1.7,2.1,1.7c0.6,0,1.2-0.2,1.6-0.6l0.4,0.5h1.5l-1.1-1.2
		c0.5-0.6,0.7-1.2,0.8-2h-1c0,0.4-0.1,0.9-0.4,1.3L390.4,444.2z"/>
	<rect x="312.1" y="449.8" fill="#9D9D9C" width="130.3" height="0.4"/>
	<path fill="#A6D5C4" d="M318.2,427.1l0,3.3c0,0,3.1-0.4,6-0.3c2.9,0,4.5,0,5.6,0l1.1,0l2.2,0.2l0-2.9l-3.8-0.1c0,0,0.2,0.9-0.4,0.9
		c-0.7,0-1,0.1-1.1-0.2c-0.2-0.3-0.2-0.6-0.2-0.6l-3.2-0.2c0,0,0.2,1-1.1,1.1c-1.8,0.1-1.8-1.1-1.8-1.1L318.2,427.1z"/>
	<path fill="#00BAEE" d="M323,418.9c0,0,0.3,1.5,0.1,1.9c-0.2,0.4-0.2,0.6-0.2,0.6l0,3.9c0,0,0.7,0.3,1.8,0.3c1.1,0,2.5-0.2,2.5-0.2
		s0-2.7,0-3.8s-0.1-2.5-0.1-2.5s-1.1,0-2.2,0C323.9,419.1,323,418.9,323,418.9"/>
	<path fill="#00BAEE" d="M346.3,430.2c0,0,0.2-2.2,0.2-2.8c0-0.6,0.2-2.5,0.2-2.8c0-0.3,0.3-0.4,1.4-0.1c1.1,0.3,2.1,0.5,2.1,0.5
		s0,1.4,0,2.9c0,2.3,0.4,2.3-1.1,2.3C347.6,430.3,346.3,430.2,346.3,430.2"/>
	<path fill="#EB5765" d="M351.3,427c0,0,0,1.4,0,2.1c0,0.6-0.5,1.5,0.6,1.5c1.1,0,1.5-1.3,1.5-2.1c0-0.8,0-1.8,0-1.8s-0.8,0.1-1,0.2
		C352.2,426.9,351.3,427,351.3,427"/>
	<path fill="#A6D5C4" d="M350.6,417.2c0,0,1.2,0,1.8-0.3c0.6-0.2,1-0.9,1-1.6c0-0.7,0.4-2.1-1.1-2.1c-1.5,0-1.6,0.6-1.6,1.4V417.2z"
		/>
	<path fill="#00BAEE" d="M362.5,413.1c-0.6-0.1-0.6,0.7-0.6,1.6c0,1,0,3.1,0,3.7c0,0.6,1.3,0.9,1.3,0.9l1.9-2l0.1-3.8
		C365.2,413.6,363.1,413.2,362.5,413.1"/>
	<path fill="#0086CD" d="M366.4,430l3.9,0.1c0,0-0.2-5.3-0.1-6c0-0.7,0-0.7,0-0.7s-0.4-0.3-0.8-0.6c-0.5-0.3-0.6-0.4-1.4-0.4
		c-0.7,0-1.1,0-1.1,0L366.4,430z"/>
	<path fill="#FBB800" d="M375.8,430.2c0,0,3.9,0,4.7,0c0.7,0,1.7-0.7,1.8-2.3c0-1.6,0-8.8,0-10.3c0-1.6,0.1-2.5,0.2-3.1
		c0.1-0.6,0-0.7,0-2.8c0-2,0-3.6,0-4.5c0-0.8-0.8-1.2-1.6-1.1c-0.8,0.2-3.2,1.4-3.2,1.4s-0.1,0.9,0.3,1c0.4,0,1.6,0,2.2,0
		c0.6,0,0.6,0.5,0.2,0.7c-0.4,0.3-3.3,2.4-3.9,3c-0.6,0.6-0.6,0.5-0.6,1.4C375.9,414.6,375.8,430.2,375.8,430.2"/>
	<path fill="#64C5DE" d="M400.4,430.6c0,0-2.4-0.3-3.4-0.3c-1,0-1-0.5-1.1-1.5c0-1,0.2-3.5,0.3-5.2c0-1.8,0.1-3.2,0.1-5.7
		c0-2.5,0.4-7.6,0.4-9.2c0-1.6,0.1-3.4,0.1-4.3c0-0.9-0.2-1.9,0.1-2.1c0.3-0.3,0.7-0.3,0.6-1.3c-0.2-1.1-1.1-1.5,0-2.1
		c1.1-0.5,1.5-0.4,2.2-1.6c0.7-1.2,1.9-3,1.9-1.7c0,1.3-0.1,3.3-0.1,4c0,0.7-0.5,0.1-0.6,1.7c-0.1,1.5-0.2,12.7-0.2,14.6
		c0,1.8-0.2,3.1-0.2,5.7C400.5,423.9,400.4,430.6,400.4,430.6"/>
	<path fill="#FBB800" d="M402.3,430.4l4.2-0.2l0.2-9c0,0-1.9,0.1-2.5,0.3c-0.6,0.2-1.3,1.8-1.5,2.7c-0.2,0.9-0.7,1.4-0.7,2.7
		c0,1.4,0.1,2.1,0.2,2.6C402.4,429.9,402.3,430.4,402.3,430.4"/>
	<path fill="#EB5765" d="M421.5,420.2c0,1.2-0.3,10-0.3,10s1.1,0,2.1-0.1c1-0.1,1.9,0.1,1.9,0.1s0-1.9,0-4.1c0-2.2-0.2-4.8-0.2-6.7
		c0-1.9-0.1-2.5-0.7-2.4c-0.5,0.1-0.2,0.6-0.5,1.1c-0.3,0.5-1,0.8-1.6,1.1C421.7,419.4,421.5,418.9,421.5,420.2"/>
	<path fill="#BCA0CC" d="M434.8,427.8c-0.1,0.8-0.2,1.4-0.3,2c0,0.6,0.2,1.1,1.2,1.1c1,0,6.7-0.1,6.7-0.1s0-2.8,0-3.6
		c0-0.8-0.3-1.8-1.7-1.9c-1.4-0.1-3.4,0.3-3.4,0.3s0.1,0.7-0.7,1c-0.8,0.3-0.9,0.2-1.4,0.3C434.8,426.7,434.9,427,434.8,427.8"/>
	<path fill="#CF9510" d="M311.9,429.1l0,2.4c0,0,1.3,0,1.9,0c0.6,0,1.1-0.2,1.1-0.2l0-2.1c0,0-0.8-0.2-1.5-0.2
		C312.7,429,311.9,429.1,311.9,429.1"/>
	<path fill="#F4A6B6" d="M315.6,429.4v2c0,0,0.4-0.2,0.4-0.4c0-0.2,0.5-0.3,0.5,0c0,0.3,0.2,0.5,0.7,0.5c0.4,0,0.4-0.2,0.4-0.7
		c0-0.5,0-1.4,0-1.4H315.6z"/>
	<path fill="#0086CD" d="M311.9,427.4c0,0,0-0.4,0.5-0.8c0.4-0.4,0.6-0.5,1.1-0.2c0.6,0.3,0.7,0.4,0.3,0.9c-0.4,0.5-0.6,0.7-1.1,0.5
		C312.1,427.5,311.9,427.4,311.9,427.4"/>
	<path fill="#AFCA0B" d="M314.5,426.5c0,0,0.7-0.2,1.3-0.2c0.6,0,1.6,0.1,2,0c0.4,0,0.8-0.4,0.8-1.2c0-0.8,0-3,0-3s-0.7-0.2-1.3-0.4
		c-0.6-0.2-1.1-0.3-1.8,0c-0.7,0.2-1.1,0.6-1.1,0.6s-0.1,1.1,0,2.5C314.5,426.1,314.5,426.5,314.5,426.5"/>
	<path fill="#C63C8E" d="M320.4,419.6c0,0.7-0.1,1.8-0.1,2.8c0,1.7-0.9,1.4-0.3,2.1c0.5,0.7,1.9,0.1,2.1-0.7
		c0.2-0.8,0.2-2.7,0.2-3.6c0-0.9,0-1.8,0-1.8s-0.8-0.1-1.3-0.1C320.3,418.5,320.4,419,320.4,419.6"/>
	<path fill="#FBB800" d="M327.3,412.4c-0.1-1.1-0.2-1.5,0.5-1.5c0.7,0,1.9,0.4,1.9,0.4s0,0.6,0,1.2c0,0.6,0.3,0.7-0.4,0.7
		c-0.7,0-1.2,0-1.6,0C327.4,413,327.4,413.5,327.3,412.4"/>
	<path fill="#F4A6B6" d="M331.9,418.1c-0.1,0.7-0.2,1.5-0.3,2.2c-0.1,0.7-0.5,1.2,0.4,1.2c0.9,0,4,0.1,4,0.1s0.3-2.3,0.4-3
		c0-0.7,0-1,0-1s-1.9,0-3.2,0C331.9,417.7,332,417.4,331.9,418.1"/>
	<path fill="#CF9510" d="M329.7,423.1c0.7-0.1,6.9,0,6.9,0s0.1,1.3,0.1,1.8c0,0.5-0.1,1.4-2.2,1.4c-2.1,0-3.2,0-3.7,0
		c-0.5,0-0.9,0.1-0.9,0.1s0-1-0.1-1.6C329.6,424.3,329.1,423.2,329.7,423.1"/>
	<path fill="#0086CD" d="M335.8,428.2c1.2,0,1.6,0.1,2.1,0.1c0.5,0,1.2,0.7,1.1,1.5c0,0.7,0.2,1.4-1.7,1.4c-1.9,0-1.4,0-1.7,0
		c-0.4,0-0.4-0.2,0-0.5c0.4-0.3,0.3-0.8,0-1.1C335.6,429.1,334.6,428.2,335.8,428.2"/>
	<path fill="#D8ACD0" d="M343.6,431.1c0,0-2.4,0.1-3.9,0.1c-0.6,0-0.4-0.6-0.4-1.1c0-0.5,0.1-8.9,0.2-11c0-2.1,0-5.3,0-5.3l1.1-0.6
		c0,0,0-0.6,0.1-1.1c0.1-0.5,0.3-0.4,0.4-1.4c0.1-1,0-1.6,0.1-2.4c0.2-0.8,0.4-1.2,0.7-1.9c0.3-0.7,0.5-1.2,0.4-1.7
		c-0.1-0.4-0.1-0.7-0.1-0.7s0.8,0.5,0.8,1.6c0,1.1-0.1,2.4,0.1,3.1c0.2,0.7,0.7,0.4,0.7,2.2c0,1.8,0.1,7.2,0,9.2
		c-0.1,2-0.2,3.1-0.3,3.6c-0.1,0.5-0.3,1.1-0.3,2.3C343.3,428.4,343.6,431.1,343.6,431.1"/>
	<path fill="#E50050" d="M344.4,425.6c0,0,0,3.9,0,4.6c0,0.7,0.1,0.9,0.5,0.9c0.4,0,0.3-0.5,0.5-1.3c0.3-0.8,0.8-1.4,1-2.1
		c0.1-0.7,0.1-1.2,0-1.8C346.1,424.9,344.4,425.6,344.4,425.6"/>
	<path fill="#C63C8E" d="M345.6,424.3c0.2,0,0.8-0.2,1.6-0.2c0.8,0,1.8-0.2,2-1.1c0.2-0.9,0.3-3,0.3-3s0-0.7-1.7-0.7
		c-1.7-0.1-3,0.1-2.5,2.4c0.5,2.2,0.3,1.8,0.1,2.1C345.3,424.2,345.3,424.3,345.6,424.3"/>
	<path fill="#CF9510" d="M351.2,420c0,0,0,2.2,0,2.8c0,0.7-0.1,1.2,0.9,1.2c1,0,2.1,0.1,2.1-1.7c0-1.8-0.1-3-0.1-3s-0.8,0.1-1.3,0.3
		C352.3,419.7,351.2,420,351.2,420"/>
	<path fill="#0086CD" d="M348.2,415.2c0.2-0.3,0.1-1.3,0.1-2.2c0-0.9-0.8-1.5-1.8-1.5c-1,0-1.4,0.3-1.4,1.4c0,1.1,0.2,2.7,0.2,2.7
		S348,415.5,348.2,415.2"/>
	<path fill="#AFCA0B" d="M350.9,407.1c0,0,0.3-2.6-1.4-2.4c-1.7,0.2-1.4,1.3-1.4,1.6c0,0.3,0.1,1,0.1,1L350.9,407.1z"/>
	<path fill="#F4A6B6" d="M356.8,406.1c0,0,0.5,0.2,1.2,0c0.7-0.2,0.9-0.6,1.1-0.6c0.2,0,0.1,1.1,0.1,2.1c0,1.6-0.9,1.8-1.6,1.8
		c-0.7,0-0.9-0.2-0.9-1C356.8,407.6,356.8,406.1,356.8,406.1"/>
	<path fill="#BCA0CC" d="M355.7,419.7l2.2-1.7l2.1,0.2l0,9.9c0,0,0.4,0,0.4,0.7c0,0.7-0.1,1.4-0.3,1.9c-0.2,0.5,0.3,0.5-1,0.6
		c-1.3,0.1-3.2,0-3.2,0s-0.2-1.8-0.2-3.1c0-1.3,0.3-2.1,0.2-3c0-0.8-0.4-0.9-0.4-2C355.6,422.2,355.7,419.7,355.7,419.7"/>
	<path fill="#FBB800" d="M357,412.8c0,0,0,3.3,0,3.7c0,0.4,0.3,0.8,1.2,0.7c0.9-0.1,1.8-0.5,1.9-2.1c0.1-0.9,0.1-1.4,0.1-2.1
		c0-0.7-0.2-0.6-0.9-0.7c-0.7,0-0.7,0.3-1.3,0.4C357.6,412.8,357,412.8,357,412.8"/>
	<path fill="#AFCA0B" d="M361.2,431c0.2,0.1,2.8,0,3.6,0c0.7,0,1.2-0.2,1.2-1.5c0-1.4,0-6.1,0-7c0-0.8,0.3-1.1-0.7-1.5
		c-0.9-0.4-0.9-0.4-1.7,0.4c-0.8,0.8-1,0.9-1.8,1.2c-0.8,0.4-0.7,0.4-0.7,0.4S361.1,430.9,361.2,431"/>
	<path fill="#A6D5C4" d="M367,412c0,0.7-0.3,7.8-0.2,8.5c0.1,0.8,0.9,1.1,1.7,1.1c0.8,0,2.2-0.4,2.2-1.7c0-1.3,0-3.1,0-4.7
		c0-1.6,0.3-3.7,0.3-3.7s-1.4-0.8-2.5-0.8C367.5,410.7,366.9,411.2,367,412"/>
	<path fill="#009A90" d="M371.7,418.1c-0.1,1.4,0.1,2.6,0.1,3.2c0,0.6-0.1,1.2,0.8,1.1c0.9-0.1,2.2-1.3,2.2-3.5
		c0-2.2-0.3-1.8-1.1-2.1C373,416.8,371.8,416.7,371.7,418.1"/>
	<path fill="#EB5765" d="M372.5,423.2c0,0,0,1.3-0.2,2.2c-0.1,0.9-0.2,2.5-0.1,3.6c0,1.1,0.1,2.2,0.1,2.2l2.5-0.3
		c0,0-0.1-2.7-0.1-4.2c0-1.5,0.3-2.7-0.6-3.2C373.1,423.1,372.5,423.2,372.5,423.2"/>
	<path fill="#D8ACD0" d="M383.8,430.8c0,0,0.3-0.5,0.3-1.4c0-0.9-0.1-9.4-0.1-10.6c0-1.2,0.3-1.7,0.4-2.1c0.2-0.4,0.1-0.9,0.1-0.9
		s0.7,0,1,0c0.3,0,0.7-0.2,0.7-0.2l1.5,1c0,0,0.2,3.9,0.1,5.5c-0.1,1.6-0.5,1.4-0.5,4c0,2.6-0.1,3-0.1,3.6s-0.2,1.2-0.9,1.2
		C385.8,430.9,383.8,430.8,383.8,430.8"/>
	<path fill="#0086CD" d="M384.2,412.3c0,0.4-0.3,1.5,0.8,0.9c1.1-0.6,2.1-0.6,2.2-2.1c0.1-1.5,0.2-2.9,0.2-2.9s-1-0.6-2.1-0.4
		c-1.1,0.2-1.1,0.7-1.1,0.7S384.2,412,384.2,412.3"/>
	<path fill="#64C5DE" d="M388.3,413.1c0,0.8,0,1.4,0,1.8c0,0.4,0.4,0.6,1,0.7c0.6,0,1.4,0,1.4-1c0-1,0.1-1.5,0.1-1.5
		s-1.2-0.9-1.8-0.7C388.3,412.5,388.3,412.3,388.3,413.1"/>
	<path fill="#AFCA0B" d="M393.7,415.9c0,0-1.9-0.1-2.4,0c-0.5,0.1-1.8,0.2-1.8,1.8c0,1.7,0,3.1,0,3.7c0,0.7,0.1,0.8,0.9,0.9
		c0.8,0.1,3.3-1.1,3.3-1.1s0-2.5,0.1-3.4C393.9,417,393.7,415.9,393.7,415.9"/>
	<path fill="#0086CD" d="M387.9,425.1c0,0.7,0.1,3.7,0.2,4.4c0,0.7,0,1.5,0.9,1.4c0.9,0,0.6,0,1.1,0c0.6,0,0.7-0.7,0.7-1.6
		c0-0.9,0.1-3.5,0.1-4.2c0-0.8,0.2-1.7-1.1-1.4c-1.3,0.3-1.5,0-1.8,0.4C387.9,424.6,387.9,424.4,387.9,425.1"/>
	<path fill="#E50050" d="M391.5,424.1c-0.1,0.3,0.3,2.5,0.4,3.7c0.1,1.2-0.3,3.3,0.6,3.3c0.9,0,2.8,0.2,2.9-1.6
		c0.1-1.7,0.2-3.7,0-4.9c-0.1-1.1-0.7-1.7-1.1-1.6c-0.4,0-0.9,0.7-1.4,0.8C392.4,424,391.6,423.8,391.5,424.1"/>
	<path fill="#FBB800" d="M391.6,411.5c0.1,0.7,0.2,2.3,0.3,2.8c0,0.5,0.6,1.3,1.6,0.8c1-0.5,1.8-1.3,2.1-2c0.3-0.7,0.3-1.5,0-2.1
		c-0.3-0.6-0.3-0.8-1.6-0.7c-1.3,0.2-1.4-0.2-1.8,0.1C391.7,410.8,391.4,410.8,391.6,411.5"/>
	<path fill="#E30613" d="M392.9,405.9c0,0,0.1,1.1,0.1,2c0,0.9,0,1.2,0.7,1.4c0.7,0.1,1.9-0.1,1.9-0.1s0.4-1.3,0.4-1.9
		c0-0.6,0.1-1.3-0.4-1.4c-0.5-0.1-0.7,0.1-1.4,0.1C393.7,406,392.9,405.9,392.9,405.9"/>
	<path fill="#0086CD" d="M378.1,402.6c0-0.5,0.3-1.9-0.9-2.6c-1.2-0.7-1.6,0-1.6,0.9c0,0.9-0.2,1.6,0.1,1.8c0.3,0.1,1.1,0.5,1.8,0.7
		C378.2,403.7,378.2,403.1,378.1,402.6"/>
	<path fill="#EB5765" d="M389,391.7c0,0,0,1,0,2c0,2.1,0.3,3,0.3,3s1.3,0,2-0.2c0.7-0.1,0.5-0.3,0.5-0.9c0-0.6,0.1-2.3,0.1-2.9
		c0-0.6,0.5-0.8-0.6-0.9C390.3,391.7,389,391.7,389,391.7"/>
	<path fill="#BCA0CC" d="M402.4,420.1h2c0,0,0.4,0.9,0.4,1.5c0,0.6-0.2,1.7-1.3,1.8c-1.1,0.1-1.3,0-1.3,0s-0.2-0.6,0-1.4
		C402.2,421.3,402.4,420.1,402.4,420.1"/>
	<path fill="#CF9510" d="M407.7,419.9c-0.9,0-2.8,0.1-2.8,0.1s-0.4-0.9-0.5-1.8c-0.1-0.8,0.2-1.7,0.2-2.5c0-0.8-0.4-1.6-0.2-2.8
		c0.2-1.2,0.5-1.3,1.5-1.3c1,0,2.3-0.4,2.5,0c0.2,0.4,0.4,1.9,0.3,3.9c0,2,0,2.5-0.1,3.2C408.5,419.5,408.6,419.9,407.7,419.9"/>
	<path fill="#F4A6B6" d="M405,410.3c0,0-0.1-1,0-1.6c0.2-0.6,0.5-1.1,0.5-1.1l-0.1-4.3c0,0-0.9-0.5-1.7-0.7
		c-0.7-0.2-1.3,0.4-1.3,1.5c0,1.1,0,5-0.1,5.7c0,0.7,0.1,1.2,0.9,1.1C404,410.8,405,410.3,405,410.3"/>
	<path fill="#0086CD" d="M409.4,405.7c0,0.8,0,2.5-0.1,3.1c0,0.7,0.1,1.2,0.9,1.2c0.7,0,0.9-0.8,0.9-1.2v-0.6c0,0,0.4-0.2,0.4-1
		c0-0.8-0.2-1.8-0.2-1.8l-1.9-0.1C409.5,405.2,409.4,404.9,409.4,405.7"/>
	<path fill="#C63C8E" d="M410.5,419.3c0,0,1.7,0.1,3.1,0c1.4,0,2.4-0.2,2.7-0.2c0.4,0,0.5-0.1,0.5-0.1s0.1-1.8,0.1-2.9
		c0-1.1-0.1-2.5-0.2-3.1c-0.1-0.6,0.2-0.7-0.8-0.8c-1-0.1-2.9,0-3.6,0c-0.7,0-1.4,0.2-1.5,1.3c-0.1,1.1-0.2,1.4-0.2,2.6V419.3z"/>
	<path fill="#009A90" d="M418.5,415.1c0.7-0.6,1.4-1.1,1.4-2.5c0-1.4,0.1-1,0-1.6c-0.1-0.6,0.1-1.1-0.7-1.3c-0.8-0.1-1.8-0.4-1.8,1
		c0,1.4-0.1,2.1,0,3.2c0.1,1.1,0.1,1.4,0.4,1.4C418.1,415.3,418.4,415.2,418.5,415.1"/>
	<path fill="#A6D5C4" d="M417.7,419.9c-0.1-0.2-1.2,0-2.3-0.2c-1.1-0.1-2-0.4-2.5,1.3c-0.6,1.8-0.9,3-1.4,3.8
		c-0.5,0.8-0.9,1.4-0.9,1.4s-0.1,1.8-0.4,2.5c-0.3,0.7-0.5,1.7-0.9,2c-0.4,0.3-0.2,0.3,0.2,0.3c0.4,0,3,0.1,4,0
		c1-0.1,3.7-0.2,3.7-0.2s0.1-1.9,0.2-3c0.1-1,0.3-2.1,0.3-3.8C417.8,422.3,417.8,420.1,417.7,419.9"/>
	<path fill="#0086CD" d="M418.4,421.4c-0.3,0.2,0,1.2-0.1,3c0,1.8,0.4,2.2,0.3,3.6c-0.1,1.4-0.4,2.8,0.5,2.8c0.9,0,1.4,0,1.6-2.3
		c0.2-2.2,0.7-2.1,0.7-3.4v-3.3c0,0-0.2-0.2-1-0.5C419.7,421.1,418.7,421.3,418.4,421.4"/>
	<path fill="#CF9510" d="M427.3,413.6c0.8,0,1.8-0.3,2.5-0.6c0.7-0.3,1.3-0.5,1.3-1.8c0-1.4,0.4-2.2-1-2.5c-1.4-0.3-3.2,0-3.4,1.4
		c-0.2,1.4,0.1,1,0,1.7c-0.1,0.7-0.3,1.2,0,1.5C426.9,413.5,426.5,413.6,427.3,413.6"/>
	<path fill="#BCA0CC" d="M426.4,420c0,1.3,0.1,2.6,0.1,3.4c0,0.8,0,1.3,0.6,1.4c0.5,0.1,1.4,0,1.7-2.1c0.3-2.1,0.3-3,0.3-3
		s-0.5-0.7-1.5-1C426.5,418.5,426.4,418.7,426.4,420"/>
	<path fill="#FBB800" d="M430.3,423.5c0.7,0,1.5-0.3,1.5-1.3c0-0.9,0.2-1.9,0.2-2.7c0-0.7,0-1.6,0-1.6s0.2-0.3-1-0.3
		c-1.1,0-1.5,0.3-1.5,1.3c0,1,0,1.5,0.1,2.2c0,0.7,0.2,0.9,0.3,1.5C430,423.3,429.6,423.5,430.3,423.5"/>
	<path fill="#F4A6B6" d="M433.3,420.6c0,0,0.2,2,0.2,2.6c0,0.6-0.2,1.1,0.7,1.2c0.9,0.1,0.9,0.1,1.3,0c0.4-0.1,0.6-0.4,0.7-1.2
		c0-0.8,0.2-2.1,0.2-2.5c0-0.5-0.1-0.6-0.1-0.6s-0.3,0-1,0.1c-0.7,0.1-0.8,0.3-1.2,0.4C433.6,420.7,433.3,420.6,433.3,420.6"/>
	<path fill="#64C5DE" d="M433.9,431c0,0,0-1.8,0-3.6c0-1.8-0.5-2.6-1.7-2.9c-1.2-0.4-1,0.4-2,0.7c-1,0.3-1.5,0-2.2,0
		c-0.7,0-0.8,0.1-1.3,1c-0.5,0.9-0.4,1.3-0.3,2.2c0,1-0.1,2.7-0.1,2.7L433.9,431z"/>
	<path fill="#EB5765" d="M437.4,417.7v2.5c0,0.4,0.1,1,1.1,0.9c1.1-0.1,1.3-0.8,1.4-2c0.1-1.2,0-1.7,0-1.7s-0.7-0.7-1.6-0.7
		C437.4,416.8,437.4,416.7,437.4,417.7"/>
	<path fill="#C90C0F" d="M391,436.5c-0.3-0.1-0.6-0.1-1.1-0.1c-1.4,0-2.1,1-2.1,2.2c0,1.3,0.7,2.2,2.1,2.2c0.5,0,0.8,0,1.1-0.1
		l-0.1-0.9c-0.2,0.1-0.5,0.2-0.9,0.2c-0.8,0-1.2-0.6-1.2-1.4c0-0.8,0.4-1.3,1.1-1.3c0.3,0,0.6,0.1,0.8,0.2L391,436.5z"/>
	<path fill-rule="evenodd" clip-rule="evenodd" fill="#C90C0F" d="M391,438.6c0,1.2,0.8,2.2,2.3,2.2c1.4,0,2.3-1,2.3-2.2
		c0-1.4-1-2.3-2.3-2.3C392,436.3,391,437.2,391,438.6 M392.2,438.5c0-0.6,0.4-1.3,1.1-1.3c0.7,0,1.1,0.6,1.1,1.3
		c0,0.7-0.2,1.5-1.1,1.5C392.4,439.9,392.2,439.2,392.2,438.5"/>
	<path fill="#C90C0F" d="M395.9,440.7h1.1v-2.1c0-0.5,0.2-1.4,1-1.4c0.7,0,0.7,0.7,0.7,1.2v2.3h1.1V438c0-1-0.4-1.7-1.5-1.7
		c-0.6,0-1.1,0.2-1.4,0.7h0v-0.6h-1.1V440.7z"/>
	<polygon fill="#C90C0F" points="401.7,440.7 402.9,440.7 404.5,436.4 403.4,436.4 402.4,439.5 402.3,439.5 401.3,436.4 400,436.4 	
		"/>
	<path fill-rule="evenodd" clip-rule="evenodd" fill="#C90C0F" d="M405.2,438.1c0.1-0.6,0.4-1,1-1c0.6,0,0.9,0.5,0.9,1H405.2z
		 M407.9,439.6c-0.4,0.2-0.9,0.4-1.4,0.4c-0.7,0-1.2-0.4-1.2-1.1h3c0-1.5-0.5-2.6-2.1-2.6c-1.4,0-2,1-2,2.2c0,1.4,0.8,2.2,2.3,2.2
		c0.6,0,1.1-0.1,1.5-0.3V439.6z"/>
	<path fill="#C90C0F" d="M408.6,440.7h1.1v-2.1c0-0.5,0.2-1.4,1-1.4c0.7,0,0.7,0.7,0.7,1.2v2.3h1.1V438c0-1-0.4-1.7-1.5-1.7
		c-0.6,0-1.1,0.2-1.4,0.7h0v-0.6h-1.1V440.7z"/>
	<path fill="#C90C0F" d="M413.6,439.4c0,0.8,0.5,1.4,1.4,1.4c0.3,0,0.6,0,0.8-0.1l0-0.9c-0.1,0.1-0.3,0.1-0.5,0.1
		c-0.4,0-0.5-0.3-0.5-0.7v-2h1v-0.8h-1v-1.2l-1.1,0.4v0.9h-0.8v0.8h0.8V439.4z"/>
	<path fill-rule="evenodd" clip-rule="evenodd" fill="#C90C0F" d="M416.3,440.7h1.1v-4.2h-1.1V440.7z M416.3,435.7h1.1v-1.1h-1.1
		V435.7z"/>
	<path fill-rule="evenodd" clip-rule="evenodd" fill="#C90C0F" d="M417.8,438.6c0,1.2,0.8,2.2,2.3,2.2c1.4,0,2.3-1,2.3-2.2
		c0-1.4-1-2.3-2.3-2.3C418.8,436.3,417.8,437.2,417.8,438.6 M419,438.5c0-0.6,0.4-1.3,1.1-1.3c0.7,0,1.1,0.6,1.1,1.3
		c0,0.7-0.2,1.5-1.1,1.5C419.2,439.9,419,439.2,419,438.5"/>
	<path fill="#C90C0F" d="M422.7,440.7h1.1v-2.1c0-0.5,0.2-1.4,1-1.4c0.7,0,0.7,0.7,0.7,1.2v2.3h1.1V438c0-1-0.4-1.7-1.5-1.7
		c-0.6,0-1.1,0.2-1.4,0.7h0v-0.6h-1.1V440.7z"/>
	<path fill="#1D1D1B" d="M312.1,446.9c1,0.3,2.2,0.5,3.2,0.5c2.4,0,4.7-0.8,4.7-3.5c0-3.9-5.1-2.7-5.1-4.4c0-0.9,1.2-1,1.9-1
		c0.8,0,1.6,0.2,2.4,0.5l0.2-2.2c-0.7-0.2-1.7-0.4-2.8-0.4c-2.2,0-4.7,0.7-4.7,3.3c0,3.9,5.1,2.6,5.1,4.6c0,0.9-0.9,1-1.8,1
		c-1.2,0-2.2-0.3-3-0.7L312.1,446.9z"/>
	<path fill-rule="evenodd" clip-rule="evenodd" fill="#1D1D1B" d="M327.1,433.6c-0.1,0.4-0.4,0.6-0.8,0.6c-0.6,0-1.4-0.6-2.2-0.6
		c-1.2,0-1.8,1.1-2,2.2h1.1c0.1-0.4,0.3-0.6,0.8-0.6c0.5,0,1.4,0.6,2.2,0.6c1.3,0,1.8-1,2-2.2H327.1z M319.3,447.2h2.9l0.8-2.3h4
		l0.8,2.3h3.1l-4.1-10.7h-3.5L319.3,447.2z M326.4,442.8h-2.7l1.4-4.2h0L326.4,442.8z"/>
	<path fill-rule="evenodd" clip-rule="evenodd" fill="#1D1D1B" d="M330,441.8c0,3.4,1.9,5.6,5.4,5.6c3.5,0,5.4-2.1,5.4-5.6
		c0-3.4-1.8-5.6-5.4-5.6C331.9,436.2,330,438.4,330,441.8 M333,441.8c0-1.9,0.7-3.4,2.4-3.4c1.7,0,2.4,1.6,2.4,3.4
		c0,1.8-0.7,3.4-2.4,3.4C333.7,445.2,333,443.6,333,441.8"/>
	<path fill-rule="evenodd" clip-rule="evenodd" fill="#1D1D1B" d="M342.9,447.2h2.9v-3.8h1.1c2.7,0,4.3-1.3,4.3-3.5
		c0-2.4-1.5-3.5-4.8-3.5h-3.4V447.2z M345.8,438.5h0.7c1,0,1.8,0.4,1.8,1.4c0,1.1-0.8,1.5-1.8,1.5h-0.7V438.5z"/>
	<path fill-rule="evenodd" clip-rule="evenodd" fill="#1D1D1B" d="M349.1,447.2h2.9l0.8-2.3h4l0.8,2.3h3.1l-4.1-10.7h-3.5
		L349.1,447.2z M356.2,442.8h-2.7l1.4-4.2h0L356.2,442.8z"/>
	<path fill="#1D1D1B" d="M369.5,436.4h-2.9v6.2c0,1.4-0.4,2.6-1.8,2.6c-1.5,0-1.8-1.2-1.8-2.6v-6.2H360v6.7c0,2.9,1.9,4.3,4.7,4.3
		c2.8,0,4.7-1.3,4.7-4.3V436.4z"/>
	<polygon fill="#1D1D1B" points="370.2,447.2 377.5,447.2 377.5,445 373.1,445 373.1,436.4 370.2,436.4 	"/>
	<path fill-rule="evenodd" clip-rule="evenodd" fill="#1D1D1B" d="M376.6,441.8c0,3.4,1.9,5.6,5.4,5.6c3.5,0,5.4-2.1,5.4-5.6
		c0-3.4-1.8-5.6-5.4-5.6C378.5,436.2,376.6,438.4,376.6,441.8 M379.6,441.8c0-1.9,0.7-3.4,2.4-3.4c1.7,0,2.4,1.6,2.4,3.4
		c0,1.8-0.7,3.4-2.4,3.4C380.3,445.2,379.6,443.6,379.6,441.8"/>
	<polygon fill="#8D8B8C" points="394.4,447.2 395.6,447.2 397.3,442.9 396.1,442.9 395.1,446 395.1,446 394,442.9 392.8,442.9 	"/>
	<path fill-rule="evenodd" clip-rule="evenodd" fill="#8D8B8C" d="M397.4,447.2h1.1v-4.3h-1.1V447.2z M397.4,442.2h1.1v-1.1h-1.1
		V442.2z"/>
	<path fill="#8D8B8C" d="M401.9,443c-0.4-0.1-0.7-0.2-1.2-0.2c-0.9,0-1.7,0.4-1.7,1.3c0,1.5,2,1,2,1.8c0,0.4-0.5,0.5-0.7,0.5
		c-0.4,0-0.8-0.1-1.1-0.3l-0.1,0.9c0.4,0.1,0.9,0.2,1.3,0.2c0.9,0,1.8-0.4,1.8-1.4c0-1.5-2-1.1-2-1.8c0-0.4,0.4-0.5,0.7-0.5
		c0.4,0,0.7,0.1,1,0.2L401.9,443z"/>
	<path fill-rule="evenodd" clip-rule="evenodd" fill="#8D8B8C" d="M402.5,447.2h1.1v-4.3h-1.1V447.2z M402.5,442.2h1.1v-1.1h-1.1
		V442.2z"/>
	<path fill="#8D8B8C" d="M404.9,445.9c0,0.8,0.5,1.4,1.4,1.4c0.3,0,0.6,0,0.8-0.1l0-0.9c-0.1,0.1-0.3,0.1-0.5,0.1
		c-0.4,0-0.5-0.3-0.5-0.7v-2h1v-0.8h-1v-1.2l-1.1,0.4v0.8h-0.8v0.8h0.8V445.9z"/>
	<path fill-rule="evenodd" clip-rule="evenodd" fill="#8D8B8C" d="M407,445.1c0,1.2,0.8,2.2,2.3,2.2c1.4,0,2.3-1,2.3-2.2
		c0-1.4-1-2.3-2.3-2.3C408,442.9,407,443.7,407,445.1 M408.2,445c0-0.6,0.4-1.3,1.1-1.3c0.7,0,1.1,0.6,1.1,1.3
		c0,0.7-0.2,1.5-1.1,1.5C408.4,446.4,408.2,445.7,408.2,445"/>
	<path fill="#8D8B8C" d="M412,447.2h1.1v-1.6c0-0.6,0-1.7,0.9-1.7c0.2,0,0.4,0,0.5,0.1v-1.1c-0.1,0-0.2,0-0.3,0
		c-0.7,0-1.1,0.7-1.2,1.1h0v-1h-1V447.2z"/>
	<path fill="#8D8B8C" d="M417.6,443c-0.4-0.1-0.7-0.2-1.2-0.2c-0.9,0-1.7,0.4-1.7,1.3c0,1.5,2,1,2,1.8c0,0.4-0.5,0.5-0.7,0.5
		c-0.4,0-0.8-0.1-1.1-0.3l-0.1,0.9c0.4,0.1,0.9,0.2,1.3,0.2c0.9,0,1.8-0.4,1.8-1.4c0-1.5-2-1.1-2-1.8c0-0.4,0.4-0.5,0.7-0.5
		c0.4,0,0.7,0.1,1,0.2L417.6,443z"/>
	<polygon fill="#8D8B8C" points="313.3,454.8 314.5,458.7 315.7,454.8 317,454.8 315.2,459.8 313.7,459.8 311.9,454.8 	"/>
	<path fill="#8D8B8C" d="M321.5,453.8h-1.3v-1.2h1.3V453.8z M321.4,459.8h-1.3v-5h1.3V459.8z"/>
	<path fill="#8D8B8C" d="M328.4,455.9c-0.4-0.2-0.9-0.3-1.3-0.3c-0.5,0-0.7,0.2-0.7,0.5c0,0.4,0.4,0.5,0.9,0.7
		c0.9,0.4,1.4,0.8,1.4,1.5c0,0.9-0.8,1.5-2.1,1.5c-0.6,0-1.1-0.1-1.5-0.3l0.1-1c0.5,0.2,1,0.4,1.5,0.4c0.5,0,0.8-0.2,0.8-0.5
		c0-0.4-0.4-0.6-1-0.9c-0.8-0.4-1.3-0.7-1.3-1.4c0-0.8,0.8-1.5,2-1.5c0.4,0,0.9,0.1,1.4,0.3L328.4,455.9z"/>
	<path fill="#8D8B8C" d="M333.5,453.8h-1.3v-1.2h1.3V453.8z M333.5,459.8h-1.3v-5h1.3V459.8z"/>
	<path fill="#8D8B8C" d="M339.1,454.8h1.2v0.9h-1.2v2.2c0,0.7,0.2,1,0.7,1c0.1,0,0.3,0,0.5-0.1l0,0.9c-0.3,0.1-0.6,0.1-0.9,0.1
		c-1.2,0-1.7-0.6-1.7-1.9v-2.3h-1v-0.9h1v-1.2l1.2-0.4V454.8z"/>
	<path fill="#8D8B8C" d="M348.2,457.7h-3.5c0.1,0.8,0.7,1.4,1.6,1.4c0.5,0,1-0.1,1.5-0.4v1c-0.5,0.2-1,0.3-1.7,0.3
		c-1.7,0-2.7-1-2.7-2.7c0-1.5,1-2.5,2.5-2.5c1.4,0,2.3,0.9,2.3,2.6V457.7z M345.9,455.5c-0.6,0-1.1,0.5-1.2,1.3h2.3
		C347,456,346.5,455.5,345.9,455.5"/>
	<path fill="#8D8B8C" d="M354.7,455.9c-0.4-0.2-0.9-0.3-1.3-0.3c-0.5,0-0.7,0.2-0.7,0.5c0,0.4,0.4,0.5,0.9,0.7
		c0.9,0.4,1.4,0.8,1.4,1.5c0,0.9-0.8,1.5-2.1,1.5c-0.6,0-1.1-0.1-1.5-0.3l0.1-1c0.5,0.2,1,0.4,1.5,0.4c0.5,0,0.8-0.2,0.8-0.5
		c0-0.4-0.4-0.6-1-0.9c-0.8-0.4-1.3-0.7-1.3-1.4c0-0.8,0.8-1.5,2-1.5c0.4,0,0.9,0.1,1.4,0.3L354.7,455.9z"/>
	<path fill="#8D8B8C" d="M362.7,459.8h-1.1l0-0.8c-0.4,0.6-1,0.9-1.7,0.9c-1,0-1.7-0.7-1.7-1.6c0-1.1,0.9-1.7,2.6-1.7h0.7v-0.1
		c0-0.7-0.5-1.1-1.2-1.1c-0.4,0-0.9,0.1-1.4,0.4l0-0.9c0.6-0.2,1.2-0.4,1.7-0.4c1.5,0,2.2,0.7,2.2,2.3V459.8z M359.4,458.3
		c0,0.4,0.3,0.7,0.8,0.7c0.7,0,1.2-0.5,1.2-1.3v-0.3H361C359.9,457.4,359.4,457.7,359.4,458.3"/>
	<path fill="#8D8B8C" d="M371.5,457.3c0,1.6-1,2.6-2.7,2.6c-1.6,0-2.6-1-2.6-2.6c0-1.6,1-2.6,2.6-2.6
		C370.5,454.7,371.5,455.7,371.5,457.3 M367.5,457.3c0,1,0.5,1.7,1.3,1.7c0.8,0,1.3-0.6,1.3-1.7c0-1-0.5-1.7-1.3-1.7
		C368.1,455.6,367.5,456.3,367.5,457.3"/>
	<path fill="#8D8B8C" d="M376.3,461.9H375v-7h1.1v1c0.4-0.7,1-1.1,1.8-1.1c1.2,0,2.1,1,2.1,2.6c0,1.6-0.9,2.6-2.1,2.6
		c-0.7,0-1.3-0.3-1.7-0.9V461.9z M376.3,457.3c0,1,0.5,1.6,1.2,1.6c0.7,0,1.2-0.6,1.2-1.7c0-1-0.5-1.6-1.2-1.6
		C376.8,455.7,376.3,456.3,376.3,457.3"/>
	<path fill="#8D8B8C" d="M387.9,459.8h-1.1l0-0.8c-0.4,0.6-1,0.9-1.7,0.9c-1,0-1.7-0.7-1.7-1.6c0-1.1,0.9-1.7,2.6-1.7h0.7v-0.1
		c0-0.7-0.5-1.1-1.2-1.1c-0.4,0-0.9,0.1-1.4,0.4l0-0.9c0.6-0.2,1.2-0.4,1.8-0.4c1.5,0,2.2,0.7,2.2,2.3V459.8z M384.6,458.3
		c0,0.4,0.3,0.7,0.8,0.7c0.7,0,1.2-0.5,1.2-1.3v-0.3h-0.5C385.1,457.4,384.6,457.7,384.6,458.3"/>
	<path fill="#8D8B8C" d="M392.9,454.8v2.6c0,0.9,0.3,1.3,1,1.3c0.7,0,1.2-0.6,1.2-1.8v-2.2h1.3v5h-1.2v-1c-0.4,0.7-1,1-1.8,1
		c-1.2,0-1.8-0.7-1.8-2.1v-2.9H392.9z"/>
	<rect x="400.2" y="452.4" fill="#8D8B8C" width="1.3" height="7.4"/>
	<path fill="#8D8B8C" d="M410.3,457.3c0,1.6-1,2.6-2.7,2.6c-1.6,0-2.6-1-2.6-2.6c0-1.6,1-2.6,2.6-2.6
		C409.3,454.7,410.3,455.7,410.3,457.3 M406.4,457.3c0,1,0.5,1.7,1.3,1.7c0.8,0,1.3-0.6,1.3-1.7c0-1-0.5-1.7-1.3-1.7
		C406.9,455.6,406.4,456.3,406.4,457.3"/>
	<rect x="414" y="458.5" fill="#8D8B8C" width="1.3" height="1.3"/>
	<path fill="#8D8B8C" d="M422.9,455.9c-0.3-0.1-0.7-0.3-1-0.3c-1,0-1.6,0.7-1.6,1.6c0,0.9,0.6,1.6,1.6,1.6c0.4,0,0.7-0.1,1.1-0.3
		l0,1c-0.4,0.1-0.9,0.3-1.4,0.3c-1.6,0-2.7-1.1-2.7-2.7c0-1.4,1.1-2.6,2.7-2.6c0.5,0,1,0.2,1.4,0.3L422.9,455.9z"/>
	<path fill="#8D8B8C" d="M431.5,457.3c0,1.6-1,2.6-2.7,2.6c-1.6,0-2.6-1-2.6-2.6c0-1.6,1-2.6,2.6-2.6
		C430.5,454.7,431.5,455.7,431.5,457.3 M427.5,457.3c0,1,0.6,1.7,1.3,1.7c0.8,0,1.3-0.6,1.3-1.7c0-1-0.5-1.7-1.3-1.7
		C428.1,455.6,427.5,456.3,427.5,457.3"/>
	<path fill="#8D8B8C" d="M441.2,454.7c1,0,1.7,0.7,1.7,2.1v3h-1.3v-2.7c0-0.9-0.3-1.3-0.9-1.3c-0.7,0-1.1,0.6-1.1,1.5v2.5h-1.3v-2.7
		c0-0.9-0.3-1.3-0.9-1.3c-0.7,0-1.1,0.6-1.1,1.5v2.5H435v-5h1.2v0.9c0.4-0.7,1-1,1.7-1c0.7,0,1.2,0.4,1.5,1.1
		C439.8,455.1,440.4,454.7,441.2,454.7"/>
	<polyline fill="#FFFFFF" points="448.9,465.4 447.7,465.4 447.7,386.9 448.9,386.9 	"/>
</g>
</svg>
